<svg width="1268" height="1024" viewBox="0 0 1268 1024" fill="none" xmlns="http://www.w3.org/2000/svg">
<mask id="path-1-inside-1_152_393" fill="white">
<path d="M1002.69 1053.67L1002.31 1053.42C1000.3 1024.54 998.879 995.407 997.463 966.377C992.787 870.567 988.164 775.807 962.488 694.519C903.288 507.094 732.058 391.284 190.095 499.179L189.691 498.903C732.177 390.85 903.558 506.791 962.823 694.426C988.511 775.757 993.137 870.538 997.812 966.372C999.232 995.489 1000.66 1024.7 1002.68 1053.67M1015.27 1062.26L1014.89 1062C1010.96 1027.15 1007.98 991.714 1005 956.325C996.74 858.097 988.505 760.186 959.984 675.924C893.092 478.314 714.49 355.766 162.104 480.079L161.708 479.808C714.598 355.329 893.353 478.005 960.314 675.825C988.852 760.129 997.087 858.059 1005.35 956.307C1008.33 991.792 1011.32 1027.32 1015.27 1062.26L1015.27 1062.26ZM1030.1 1072.37L1029.7 1072.1C1023.37 1031.37 1018.44 989.504 1013.5 947.546C1001.59 846.356 989.608 744.621 957.772 656.886C882.432 449.263 695.754 320.052 135.403 461.859L135.013 461.593C695.856 319.606 882.687 448.944 958.102 656.777C989.953 744.55 1001.93 846.306 1013.85 947.517C1018.81 989.578 1023.74 1031.54 1030.1 1072.37ZM1047.18 1084.03L1046.77 1083.75C1037.61 1037.33 1030.36 988.945 1023.07 940.216C1007.37 835.369 991.426 728.924 955.682 637.075C871.122 419.792 675.591 284.221 110.031 444.545L109.654 444.288C675.681 283.773 871.369 419.471 956.009 636.961C991.766 728.841 1007.71 835.306 1023.41 940.174C1030.73 989.016 1037.99 1037.51 1047.18 1084.03L1047.18 1084.03ZM1063.53 1084.48L1063.27 1084.87C1052.2 1036.68 1043.06 985.937 1033.81 934.547C1014.12 825.177 993.899 712.889 953.49 616.132C858.946 389.752 653.751 248.406 86.0465 428.179L85.6781 427.928C653.832 247.953 859.187 389.426 953.814 616.009C994.237 712.805 1014.46 825.112 1034.16 934.498C1043.39 985.769 1052.51 1036.4 1063.53 1084.48L1063.53 1084.48ZM1076.08 1066.09L1075.82 1066.48C1065.11 1022.97 1055.58 977.27 1045.88 930.807C1021.91 815.89 996.957 696.311 950.913 593.655C845.647 358.966 630.005 212.767 63.5093 412.797L63.1495 412.552C630.075 212.312 845.881 358.636 951.236 593.526C997.295 696.214 1022.25 815.812 1046.23 930.749C1055.89 977.095 1065.41 1022.68 1076.08 1066.1L1076.08 1066.09ZM1088.66 1047.66L1088.4 1048.04C1078.41 1009.91 1069.02 970.014 1059.45 929.335C1030.81 807.671 1000.52 678.973 947.604 569.237C830.93 327.273 604.17 177.506 42.4845 398.45L42.1332 398.211C604.223 177.049 831.152 326.938 947.923 569.099C1000.85 678.87 1031.15 807.588 1059.79 929.27C1069.34 969.836 1078.7 1009.62 1088.66 1047.66L1088.66 1047.66ZM1101.27 1029.18L1101.01 1029.56C1092.17 997.651 1083.54 964.466 1074.72 930.573C1040.97 800.823 1004.52 660.704 943.159 542.479C814.458 294.519 576.113 142.862 23.0359 385.182L22.6932 384.948C576.156 142.402 814.671 294.175 943.469 542.331C1004.85 660.59 1041.3 800.729 1075.06 930.498C1083.85 964.285 1092.45 997.367 1101.27 1029.18ZM1113.91 1010.66L1113.66 1011.03C1106.47 986.424 1099.29 961.027 1091.96 935.102C1052.59 795.839 1008.92 641.372 937.115 513.019C795.893 260.603 545.762 109.212 5.29633 373.077L4.95993 372.848C545.789 108.747 796.095 260.253 937.421 512.859C1009.25 641.245 1052.92 795.735 1092.3 935.021C1099.6 960.844 1106.75 986.144 1113.91 1010.66L1113.91 1010.66ZM1126.57 992.097L1126.32 992.466C1121.45 976.538 1116.52 960.268 1111.51 943.723C1066.04 793.537 1013.79 620.933 928.977 480.547C775.943 227.232 516.828 78.8533 0.208925 356.273L0.644735 355.634C517.097 78.5281 776.207 227 929.276 480.377C1014.11 620.803 1066.37 793.432 1111.85 943.638C1116.82 960.084 1121.72 976.26 1126.57 992.1L1126.57 992.097ZM1139.26 973.504L1139.01 973.87C1137.29 968.493 1135.56 963.073 1133.81 957.617C1081.93 795.339 1019.32 599.531 918.217 444.855C756.238 197.04 495.368 54.8646 21.382 325.244L21.8367 324.578C495.647 54.5559 756.503 196.812 918.513 444.673C1019.64 599.389 1082.26 795.221 1134.15 957.522C1135.87 962.887 1137.57 968.215 1139.26 973.504ZM1151.97 954.878L1151.72 955.24C1094.61 783.982 1020.7 570.017 904.302 405.818C734.542 166.331 474.357 32.7644 44.1023 291.949L44.5759 291.254C474.652 32.4731 734.808 166.111 904.59 405.624C1020.96 569.788 1094.87 783.643 1151.97 954.878ZM1164.7 936.22L1164.46 936.58C1102.67 758.222 1016.69 532.06 886.717 363.45C710.909 135.384 454.551 12.6846 68.6399 255.989L69.1397 255.257C454.872 12.4014 711.182 135.171 886.993 363.242C1016.94 531.818 1102.91 757.88 1164.7 936.22ZM1177.45 917.539L1177.21 917.895C1103.99 713.925 991.464 445.532 823.285 271.578C647.604 89.8686 411.162 11.2836 95.3406 216.86L95.8563 216.104C411.501 10.9878 647.868 89.6462 823.534 271.342C991.693 445.273 1104.22 713.566 1177.45 917.539ZM1190.22 898.83L1189.98 899.184C1113.72 693.711 989.918 420.972 814.982 244.629C638.219 66.4403 409.232 -13.2756 124.328 174.38L124.846 173.62C409.59 -13.5526 638.494 66.2288 815.232 244.391C990.141 420.709 1113.94 693.353 1190.22 898.83ZM1203 880.096L1202.76 880.447C1123.69 673.983 989.025 397.729 807.983 218.96C737.398 149.263 659.768 94.3869 575.64 64.2508C491.52 34.117 400.901 28.722 304.33 57.9779C256.132 72.5781 206.45 95.8159 155.353 128.913L155.867 128.159C206.74 95.2901 256.212 72.1865 304.214 57.6456C400.862 28.3677 491.558 33.7686 575.747 63.9246C659.927 94.0805 737.604 148.985 808.225 218.72C989.244 397.463 1123.9 673.626 1203 880.098L1203 880.096ZM1215.8 861.338L1215.56 861.685C1129.64 643.849 973.489 346.272 772.6 166.828C703.695 105.279 629.527 57.6295 551.128 31.8706C472.739 6.11537 390.116 2.24535 304.29 28.2434C266.026 39.8373 227.123 57.3699 187.677 81.5429L188.167 80.8255C227.406 56.8511 266.106 39.4457 304.176 27.9126C390.075 1.88961 472.769 5.76469 551.23 31.5436C629.676 57.3195 703.886 104.994 772.829 166.575C973.696 346.001 1129.84 643.487 1215.8 861.34L1215.8 861.338ZM1228.62 842.557L1228.38 842.902C1164.83 686.223 1060.72 487.255 930.784 320.117C833.697 195.23 722.201 88.1184 602.456 29.7125C482.734 -28.6811 354.763 -38.3877 224.7 31.5129C223.167 32.3362 221.638 33.174 220.107 34.0174L220.549 33.3702C221.873 32.6418 223.2 31.9184 224.525 31.2064C354.702 -38.7565 482.781 -29.0423 602.602 29.4031C722.4 87.836 833.938 194.986 931.057 319.914C1060.95 487 1165.05 685.889 1228.61 842.559L1228.62 842.557ZM1241.44 823.761L1241.21 824.102C1172.16 658.28 1052.99 443.947 907.245 269.533C808.015 150.785 696.47 50.5471 580.049 -3.25977C472.681 -52.8772 361.163 -63.0039 251.326 -11.7327L251.715 -12.3032C361.479 -63.3343 472.907 -53.1536 580.189 -3.56993C696.664 50.2618 808.25 150.533 907.512 269.319C1053.22 443.684 1172.36 657.942 1241.44 823.761ZM1254.28 804.944L1254.05 805.284C1179.26 630.13 1043.44 399.603 881.213 218.555C780.564 106.227 669.761 12.9544 557.085 -36.2123C464.565 -76.5806 370.785 -87.2027 280.322 -54.2255L280.663 -54.7258C371.071 -87.5292 464.775 -76.865 557.219 -36.5268C669.947 12.6633 780.792 105.971 881.473 218.334C1043.66 399.335 1179.46 629.787 1254.28 804.946L1254.28 804.944ZM1267.13 786.112L1266.9 786.45C1186.24 601.977 1032.28 354.711 853.289 167.884C751.925 62.0786 642.54 -24.3378 533.92 -68.9747C456.719 -100.696 379.904 -111.303 306.622 -92.7671L306.921 -93.2057C380.16 -111.624 456.914 -100.991 534.047 -69.2936C642.719 -24.6404 752.144 61.8071 853.541 167.647C1032.49 354.434 1186.43 601.623 1267.13 786.112ZM218.91 518.838C748.829 426.101 913.439 535.406 965.737 712.843C988.944 791.584 990.039 883.725 991.153 977.563C991.425 1000.52 991.7 1023.58 992.299 1046.58L991.939 1046.33C991.343 1023.42 991.071 1000.43 990.8 977.554C989.687 883.738 988.595 791.621 965.401 712.928C913.165 535.702 748.706 426.529 219.323 519.12L218.91 518.838Z"/>
</mask>
<path d="M1002.31 1053.42L988.349 1054.39L988.82 1061.16L994.424 1064.98L1002.31 1053.42ZM997.463 966.377L1011.45 965.695L1011.45 965.695L997.463 966.377ZM962.488 694.519L949.138 698.736L949.138 698.736L962.488 694.519ZM190.095 499.179L182.204 510.743L187.062 514.058L192.829 512.91L190.095 499.179ZM189.691 498.903L186.956 485.173L154.272 491.683L181.8 510.467L189.691 498.903ZM962.823 694.426L976.173 690.21L976.173 690.21L962.823 694.426ZM997.812 966.372L1011.8 965.691L1011.8 965.69L997.812 966.372ZM1015.27 1062.26L1017.55 1076.07L1052.03 1070.39L1023.16 1050.69L1015.27 1062.26ZM1014.89 1062L1000.98 1063.57L1001.7 1069.94L1007 1073.56L1014.89 1062ZM1005 956.325L991.049 957.498L991.049 957.499L1005 956.325ZM959.984 675.924L973.245 671.435L973.245 671.435L959.984 675.924ZM162.104 480.079L154.213 491.643L159.24 495.073L165.178 493.737L162.104 480.079ZM161.708 479.808L158.633 466.15L127.219 473.223L153.817 491.373L161.708 479.808ZM960.314 675.825L947.053 680.313L947.053 680.314L960.314 675.825ZM1005.35 956.307L991.398 957.48L991.398 957.48L1005.35 956.307ZM1015.27 1062.26L1001.36 1063.83L1003.01 1078.47L1017.55 1076.07L1015.27 1062.26ZM1030.1 1072.37L1022.21 1083.94L1048.9 1102.15L1043.93 1070.22L1030.1 1072.37ZM1029.7 1072.1L1015.87 1074.25L1016.8 1080.25L1021.81 1083.67L1029.7 1072.1ZM1013.5 947.546L1027.41 945.909L1027.41 945.909L1013.5 947.546ZM957.772 656.886L970.932 652.11L970.932 652.11L957.772 656.886ZM135.403 461.859L127.512 473.423L132.723 476.978L138.838 475.431L135.403 461.859ZM135.013 461.593L131.578 448.021L101.46 455.646L127.122 473.157L135.013 461.593ZM958.102 656.777L944.942 661.552L944.942 661.553L958.102 656.777ZM1013.85 947.517L999.948 949.154L1013.85 947.517ZM1046.77 1083.75L1033.03 1086.46L1034.14 1092.08L1038.88 1095.31L1046.77 1083.75ZM1023.07 940.216L1036.91 938.143L1036.91 938.142L1023.07 940.216ZM955.682 637.075L968.728 631.998L968.728 631.998L955.682 637.075ZM110.031 444.545L102.14 456.109L107.549 459.8L113.849 458.014L110.031 444.545ZM109.654 444.288L105.834 430.819L77.0427 438.984L101.763 455.852L109.654 444.288ZM956.009 636.961L942.962 642.039L942.962 642.039L956.009 636.961ZM1023.41 940.174L1037.26 938.101L1037.26 938.101L1023.41 940.174ZM1047.18 1084.03L1033.44 1086.74L1034.55 1092.36L1039.29 1095.59L1047.18 1084.03ZM1063.27 1084.87L1049.62 1088.01L1056.78 1119.21L1074.83 1092.77L1063.27 1084.87ZM1033.81 934.547L1047.59 932.066L1047.59 932.065L1033.81 934.547ZM953.49 616.132L966.409 610.737L966.409 610.736L953.49 616.132ZM86.0465 428.179L78.1554 439.743L83.7806 443.582L90.273 441.526L86.0465 428.179ZM85.6781 427.928L81.4504 414.581L54.0165 423.271L77.787 439.492L85.6781 427.928ZM953.814 616.009L966.733 610.614L966.733 610.614L953.814 616.009ZM1034.16 934.498L1047.94 932.017L1047.94 932.017L1034.16 934.498ZM1063.53 1084.48L1049.89 1087.61L1057.04 1118.83L1075.1 1092.37L1063.53 1084.48ZM1075.82 1066.48L1062.22 1069.83L1069.71 1100.27L1087.38 1074.37L1075.82 1066.48ZM1045.88 930.807L1032.18 933.666L1032.18 933.666L1045.88 930.807ZM950.913 593.655L963.687 587.926L963.687 587.926L950.913 593.655ZM63.5093 412.797L55.6182 424.361L61.4796 428.361L68.1707 425.998L63.5093 412.797ZM63.1495 412.552L58.487 399.351L32.4453 408.549L55.2584 424.116L63.1495 412.552ZM951.236 593.526L938.462 599.255L938.462 599.255L951.236 593.526ZM1046.23 930.749L1059.93 927.89L1059.93 927.89L1046.23 930.749ZM1076.08 1066.1L1062.48 1069.44L1069.97 1099.89L1087.64 1073.99L1076.08 1066.1ZM1088.66 1047.66L1096.55 1036.09L1084.99 1028.2L1077.1 1039.77L1088.66 1047.66ZM1088.4 1048.04L1074.86 1051.59L1082.64 1081.32L1099.96 1055.93L1088.4 1048.04ZM1059.45 929.335L1073.08 926.128L1073.08 926.127L1059.45 929.335ZM947.604 569.237L934.994 575.318L934.994 575.318L947.604 569.237ZM42.4845 398.45L34.5934 410.015L40.7139 414.191L47.6094 411.479L42.4845 398.45ZM42.1332 398.211L37.0073 385.183L12.3949 394.867L34.2421 409.775L42.1332 398.211ZM947.923 569.099L960.534 563.019L947.923 569.099ZM1059.79 929.27L1046.16 932.477L1046.17 932.478L1059.79 929.27ZM1088.66 1047.66L1080.77 1059.22L1111.69 1080.32L1102.21 1044.11L1088.66 1047.66ZM1101.27 1029.18L1112.84 1037.07L1116.5 1031.7L1114.76 1025.44L1101.27 1029.18ZM1101.01 1029.56L1087.52 1033.3L1095.58 1062.36L1112.58 1037.45L1101.01 1029.56ZM1074.72 930.573L1061.17 934.098L1061.17 934.098L1074.72 930.573ZM943.159 542.479L955.585 536.029L955.585 536.029L943.159 542.479ZM23.0359 385.182L15.1448 396.747L21.5508 401.118L28.6542 398.006L23.0359 385.182ZM22.6932 384.948L17.0738 372.126L-6.07178 382.269L14.8021 396.513L22.6932 384.948ZM943.469 542.331L955.895 535.882L943.469 542.331ZM1075.06 930.498L1061.51 934.023L1061.51 934.023L1075.06 930.498ZM1113.91 1010.66L1127.67 1008.06L1121.4 974.848L1102.35 1002.77L1113.91 1010.66ZM1113.66 1011.03L1100.22 1014.95L1108.52 1043.39L1125.22 1018.92L1113.66 1011.03ZM1091.96 935.102L1078.49 938.91L1078.49 938.91L1091.96 935.102ZM937.115 513.019L949.333 506.183L949.333 506.183L937.115 513.019ZM5.29633 373.077L-2.59476 384.641L4.12645 389.228L11.4385 385.658L5.29633 373.077ZM4.95993 372.848L-1.1833 360.268L-22.826 370.836L-2.93116 384.412L4.95993 372.848ZM937.421 512.859L925.203 519.694L925.203 519.694L937.421 512.859ZM1092.3 935.021L1105.77 931.213L1105.77 931.212L1092.3 935.021ZM1113.91 1010.66L1100.47 1014.58L1127.67 1008.06L1113.91 1010.66ZM1126.32 992.466L1112.94 996.565L1121.47 1024.42L1137.89 1000.36L1126.32 992.466ZM1111.51 943.723L1124.91 939.667L1111.51 943.723ZM928.977 480.547L916.994 487.786L928.977 480.547ZM0.208925 356.273L-11.3553 348.382L6.83226 368.607L0.208925 356.273ZM0.644735 355.634L-5.97443 343.298L-8.99031 344.916L-10.9195 347.743L0.644735 355.634ZM929.276 480.377L941.26 473.138L941.26 473.138L929.276 480.377ZM1111.85 943.638L1098.45 947.694L1111.85 943.638ZM1126.57 992.1L1113.19 996.198L1121.72 1024.06L1138.14 999.991L1126.57 992.1ZM1139.26 973.504L1150.83 981.395L1154.68 975.748L1152.6 969.237L1139.26 973.504ZM1139.01 973.87L1125.68 978.136L1134.41 1005.45L1150.58 981.761L1139.01 973.87ZM1133.81 957.617L1147.15 953.353L1133.81 957.617ZM918.217 444.855L906.498 452.515L906.498 452.515L918.217 444.855ZM21.382 325.244L9.81784 317.353L28.3189 337.405L21.382 325.244ZM21.8367 324.578L14.9049 312.415L12.0953 314.016L10.2725 316.687L21.8367 324.578ZM918.513 444.673L906.794 452.333L906.794 452.333L918.513 444.673ZM1134.15 957.522L1120.81 961.786L1120.82 961.788L1134.15 957.522ZM1151.97 954.878L1163.54 962.769L1167.45 957.035L1165.25 950.449L1151.97 954.878ZM1151.72 955.24L1138.44 959.669L1147.38 986.452L1163.29 963.131L1151.72 955.24ZM904.302 405.818L892.88 413.914L892.88 413.914L904.302 405.818ZM44.1023 291.949L32.5381 284.057L51.3264 303.941L44.1023 291.949ZM44.5759 291.254L37.3579 279.259L34.7362 280.836L33.0117 283.363L44.5759 291.254ZM904.59 405.624L916.011 397.528L904.59 405.624ZM1164.7 936.22L1176.27 944.111L1180.24 938.293L1177.93 931.637L1164.7 936.22ZM1164.46 936.58L1151.23 941.163L1160.34 967.456L1176.02 944.471L1164.46 936.58ZM886.717 363.45L897.805 354.902L897.805 354.902L886.717 363.45ZM68.6399 255.989L57.0757 248.098L76.1064 267.832L68.6399 255.989ZM69.1397 255.257L61.6806 243.409L59.2166 244.961L57.5755 247.366L69.1397 255.257ZM886.993 363.242L875.905 371.789L875.905 371.789L886.993 363.242ZM1177.45 917.539L1189.01 925.43L1193.04 919.531L1190.63 912.808L1177.45 917.539ZM1177.21 917.895L1164.03 922.625L1173.3 948.455L1188.77 925.786L1177.21 917.895ZM823.285 271.578L833.35 261.847L833.35 261.847L823.285 271.578ZM95.3406 216.86L83.7764 208.969L102.978 228.593L95.3406 216.86ZM95.8563 216.104L88.2279 204.365L85.8742 205.895L84.2921 208.213L95.8563 216.104ZM823.534 271.342L813.468 281.073L813.468 281.073L823.534 271.342ZM1190.22 898.83L1201.78 906.721L1205.86 900.743L1203.34 893.958L1190.22 898.83ZM1189.98 899.184L1176.85 904.055L1186.27 929.446L1201.54 907.075L1189.98 899.184ZM814.982 244.629L805.042 254.489L805.043 254.489L814.982 244.629ZM124.328 174.38L112.764 166.489L132.029 186.072L124.328 174.38ZM124.846 173.62L117.156 161.921L114.843 163.442L113.282 165.729L124.846 173.62ZM815.232 244.391L805.292 254.251L815.232 244.391ZM1202.76 880.447L1189.69 885.454L1199.25 910.429L1214.33 888.338L1202.76 880.447ZM807.983 218.96L817.82 208.999L817.82 208.999L807.983 218.96ZM575.64 64.2508L570.919 77.4307L570.919 77.4307L575.64 64.2508ZM304.33 57.9779L308.389 71.3766L308.389 71.3765L304.33 57.9779ZM155.353 128.913L143.789 121.022L162.964 140.663L155.353 128.913ZM155.867 128.159L148.27 116.4L145.896 117.934L144.303 120.268L155.867 128.159ZM304.214 57.6456L308.272 71.0443L308.272 71.0443L304.214 57.6456ZM575.747 63.9246L580.469 50.7447L580.468 50.7446L575.747 63.9246ZM808.225 218.72L798.388 228.682L798.388 228.682L808.225 218.72ZM1203 880.098L1189.93 885.106L1199.49 910.077L1214.56 887.989L1203 880.098ZM1215.56 861.685L1202.54 866.822L1212.24 891.401L1227.13 869.576L1215.56 861.685ZM772.6 166.828L763.274 177.269L772.6 166.828ZM551.128 31.8706L555.498 18.5701L555.498 18.5701L551.128 31.8706ZM304.29 28.2434L300.232 14.8446L300.231 14.8449L304.29 28.2434ZM187.677 81.5429L176.113 73.6518L194.992 93.4798L187.677 81.5429ZM188.167 80.8255L180.868 68.8789L178.299 70.4482L176.603 72.9344L188.167 80.8255ZM304.176 27.9126L308.235 41.3112L308.235 41.3112L304.176 27.9126ZM551.23 31.5436L555.6 18.2432L555.6 18.2431L551.23 31.5436ZM772.829 166.575L782.155 156.134L782.155 156.134L772.829 166.575ZM1215.8 861.34L1202.78 866.479L1212.47 891.054L1227.36 869.232L1215.8 861.34ZM1228.38 842.902L1215.41 848.164L1225.22 872.367L1239.95 850.793L1228.38 842.902ZM930.784 320.117L941.837 311.525L941.837 311.525L930.784 320.117ZM602.456 29.7125L608.594 17.1294L608.594 17.1294L602.456 29.7125ZM224.7 31.5129L231.326 43.8452L231.327 43.8447L224.7 31.5129ZM220.107 34.0174L208.543 26.1263L226.865 46.2786L220.107 34.0174ZM220.549 33.3702L213.801 21.104L210.87 22.7163L208.985 25.4791L220.549 33.3702ZM224.525 31.2064L231.151 43.5393L231.153 43.5383L224.525 31.2064ZM602.602 29.4031L596.464 41.986L596.465 41.986L602.602 29.4031ZM931.057 319.914L942.11 311.321L931.057 319.914ZM1228.61 842.559L1215.64 847.823L1225.46 872.021L1240.18 850.45L1228.61 842.559ZM1241.44 823.761L1253.01 831.652L1257.28 825.383L1254.37 818.377L1241.44 823.761ZM1241.21 824.102L1228.29 829.484L1238.22 853.328L1252.77 831.993L1241.21 824.102ZM907.245 269.533L917.988 260.556L917.988 260.556L907.245 269.533ZM580.049 -3.25977L585.923 -15.9681L585.922 -15.9684L580.049 -3.25977ZM251.326 -11.7327L239.762 -19.6238L210.984 22.5487L257.248 0.953262L251.326 -11.7327ZM251.715 -12.3032L245.813 -24.9983L242.321 -23.3749L240.151 -20.1943L251.715 -12.3032ZM580.189 -3.56993L574.316 9.1384L574.316 9.13842L580.189 -3.56993ZM907.512 269.319L918.255 260.342L918.255 260.342L907.512 269.319ZM1254.05 805.284L1241.17 810.782L1251.21 834.285L1265.61 813.175L1254.05 805.284ZM881.213 218.555L870.786 227.898L870.786 227.898L881.213 218.555ZM557.085 -36.2123L562.685 -49.0439L562.684 -49.044L557.085 -36.2123ZM280.322 -54.2255L268.758 -62.1166L244.226 -26.1661L285.117 -41.0722L280.322 -54.2255ZM280.663 -54.7258L275.888 -67.8863L271.644 -66.3463L269.099 -62.6169L280.663 -54.7258ZM557.219 -36.5268L562.818 -49.3584L562.818 -49.3584L557.219 -36.5268ZM881.473 218.334L891.9 208.991L891.9 208.991L881.473 218.334ZM1254.28 804.946L1241.41 810.446L1251.44 833.942L1265.85 812.837L1254.28 804.946ZM1267.13 786.112L1278.7 794.003L1283.07 787.601L1279.96 780.501L1267.13 786.112ZM1266.9 786.45L1254.07 792.059L1264.21 815.235L1278.47 794.341L1266.9 786.45ZM853.289 167.884L843.18 177.569L843.18 177.569L853.289 167.884ZM533.92 -68.9747L539.242 -81.9239L539.241 -81.9241L533.92 -68.9747ZM306.622 -92.7671L295.057 -100.658L274.228 -70.1327L310.055 -79.1945L306.622 -92.7671ZM306.921 -93.2057L303.507 -106.783L298.352 -105.487L295.357 -101.097L306.921 -93.2057ZM534.047 -69.2936L528.726 -56.3443L528.726 -56.3441L534.047 -69.2936ZM853.541 167.647L843.432 177.332L843.432 177.333L853.541 167.647ZM218.91 518.838L216.496 505.048L182.564 510.986L211.019 530.402L218.91 518.838ZM965.737 712.843L979.166 708.885L979.166 708.885L965.737 712.843ZM991.153 977.563L1005.15 977.397L1005.15 977.397L991.153 977.563ZM992.299 1046.58L984.408 1058.14L1007.01 1073.56L1006.29 1046.21L992.299 1046.58ZM991.939 1046.33L977.944 1046.7L978.13 1053.86L984.048 1057.9L991.939 1046.33ZM990.8 977.554L1004.8 977.388L1004.8 977.388L990.8 977.554ZM965.401 712.928L978.83 708.97L965.401 712.928ZM219.323 519.12L211.432 530.684L216.131 533.891L221.735 532.911L219.323 519.12ZM1002.69 1053.67L1010.58 1042.1L1010.21 1041.85L1002.31 1053.42L994.424 1064.98L994.794 1065.23L1002.69 1053.67ZM1002.31 1053.42L1016.28 1052.44C1014.28 1023.73 1012.86 994.748 1011.45 965.695L997.463 966.377L983.479 967.06C984.895 996.065 986.325 1025.34 988.349 1054.39L1002.31 1053.42ZM997.463 966.377L1011.45 965.695C1006.79 870.348 1002.16 773.65 975.838 690.303L962.488 694.519L949.138 698.736C974.164 777.964 978.781 870.785 983.479 967.06L997.463 966.377ZM962.488 694.519L975.838 690.303C945.097 592.978 884.574 513.32 761.712 472.808C640.275 432.765 459.072 431.356 187.362 485.448L190.095 499.179L192.829 512.91C463.082 459.107 638.476 461.655 752.944 499.4C865.988 536.675 920.679 608.635 949.138 698.736L962.488 694.519ZM190.095 499.179L197.986 487.615L197.582 487.339L189.691 498.903L181.8 510.467L182.204 510.743L190.095 499.179ZM189.691 498.903L192.426 512.633C462.94 458.752 638.502 461.294 753.08 499.077C866.235 536.391 920.981 608.436 949.473 698.643L962.823 694.426L976.173 690.21C945.4 592.781 884.823 513.038 761.849 472.486C640.299 432.403 458.927 431.001 186.956 485.173L189.691 498.903ZM962.823 694.426L949.473 698.643C974.511 777.914 979.131 870.757 983.829 967.055L997.812 966.372L1011.8 965.69C1007.14 870.318 1002.51 773.599 976.173 690.21L962.823 694.426ZM997.812 966.372L983.829 967.054C985.248 996.146 986.682 1025.51 988.717 1054.64L1002.68 1053.67L1016.65 1052.69C1014.64 1023.9 1013.22 994.831 1011.8 965.691L997.812 966.372ZM1015.27 1062.26L1023.16 1050.69L1022.78 1050.43L1014.89 1062L1007 1073.56L1007.38 1073.82L1015.27 1062.26ZM1014.89 1062L1028.8 1060.43C1024.89 1025.81 1021.93 990.576 1018.95 955.151L1005 956.325L991.049 957.499C994.023 992.853 997.019 1028.48 1000.98 1063.57L1014.89 1062ZM1005 956.325L1018.95 955.152C1010.73 857.345 1002.42 757.621 973.245 671.435L959.984 675.924L946.723 680.412C974.592 762.75 982.754 858.849 991.049 957.498L1005 956.325ZM959.984 675.924L973.245 671.435C938.669 569.291 874.483 485.392 747.444 443.97C621.767 402.992 436.016 404.086 159.03 466.42L162.104 480.079L165.178 493.737C440.578 431.759 620.321 431.971 738.764 470.591C855.846 508.766 914.407 584.947 946.723 680.413L959.984 675.924ZM162.104 480.079L169.995 468.514L169.599 468.244L161.708 479.808L153.817 491.373L154.213 491.643L162.104 480.079ZM161.708 479.808L164.783 493.466C440.435 431.405 620.342 431.607 738.894 470.264C856.085 508.477 914.702 584.741 947.053 680.313L960.314 675.825L973.575 671.336C938.964 569.088 874.724 485.104 747.575 443.644C621.787 402.628 435.871 403.732 158.633 466.15L161.708 479.808ZM960.314 675.825L947.053 680.314C974.94 762.694 983.101 858.811 991.398 957.48L1005.35 956.307L1019.3 955.134C1011.07 857.308 1002.76 757.565 973.574 671.336L960.314 675.825ZM1005.35 956.307L991.398 957.48C994.379 992.929 997.382 1028.66 1001.36 1063.83L1015.27 1062.26L1029.18 1060.69C1025.26 1025.98 1022.29 990.654 1019.3 955.134L1005.35 956.307ZM1015.27 1062.26L1017.55 1076.07L1017.55 1076.07L1015.27 1062.26L1013 1048.44L1012.99 1048.44L1015.27 1062.26ZM1030.1 1072.37L1037.99 1060.81L1037.59 1060.54L1029.7 1072.1L1021.81 1083.67L1022.21 1083.94L1030.1 1072.37ZM1029.7 1072.1L1043.54 1069.95C1037.25 1029.52 1032.35 987.913 1027.41 945.909L1013.5 947.546L999.598 949.183C1004.53 991.094 1009.49 1033.22 1015.87 1074.25L1029.7 1072.1ZM1013.5 947.546L1027.41 945.909C1015.54 845.107 1003.43 741.659 970.932 652.11L957.772 656.886L944.612 661.661C975.79 747.582 987.638 847.605 999.598 949.183L1013.5 947.546ZM957.772 656.886L970.932 652.11C932.143 545.215 863.908 457.153 732.75 415.007C602.868 373.272 413.01 377.164 131.968 448.286L135.403 461.859L138.838 475.431C418.148 404.746 601.803 402.34 724.184 441.665C845.286 480.579 908.061 560.934 944.612 661.661L957.772 656.886ZM135.403 461.859L143.294 450.294L142.905 450.029L135.013 461.593L127.122 473.157L127.512 473.423L135.403 461.859ZM135.013 461.593L138.449 475.164C418.005 404.39 601.821 401.971 724.31 441.331C845.521 480.281 908.353 560.719 944.942 661.552L958.102 656.777L971.262 652.001C932.436 545.002 864.145 456.855 732.876 414.674C602.885 372.903 412.864 376.808 131.578 448.021L135.013 461.593ZM958.102 656.777L944.942 661.553C976.135 747.512 987.984 847.555 999.948 949.154L1013.85 947.517L1027.76 945.88C1015.88 845.056 1003.77 741.588 971.262 652.001L958.102 656.777ZM1013.85 947.517L999.948 949.154C1004.9 991.167 1009.86 1033.4 1016.26 1074.53L1030.1 1072.37L1043.93 1070.22C1037.63 1029.69 1032.72 987.989 1027.76 945.88L1013.85 947.517ZM1047.18 1084.03L1055.07 1072.47L1054.66 1072.18L1046.77 1083.75L1038.88 1095.31L1039.29 1095.59L1047.18 1084.03ZM1046.77 1083.75L1060.5 1081.04C1051.42 1034.99 1044.22 986.933 1036.91 938.143L1023.07 940.216L1009.22 942.289C1016.51 990.958 1023.8 1039.67 1033.03 1086.46L1046.77 1083.75ZM1023.07 940.216L1036.91 938.142C1021.27 833.658 1005.15 725.576 968.728 631.998L955.682 637.075L942.635 642.152C977.706 732.272 993.465 837.08 1009.22 942.289L1023.07 940.216ZM955.682 637.075L968.728 631.998C925.339 520.505 852.645 428.461 717.439 385.855C583.407 343.618 389.939 350.645 106.212 431.076L110.031 444.545L113.849 458.014C395.683 378.12 582.761 372.771 709.024 412.56C834.113 451.979 901.464 536.362 942.635 642.152L955.682 637.075ZM110.031 444.545L117.922 432.981L117.545 432.724L109.654 444.288L101.763 455.852L102.14 456.109L110.031 444.545ZM109.654 444.288L113.473 457.757C395.541 377.768 582.774 372.403 709.144 412.225C834.34 451.678 901.751 536.143 942.962 642.039L956.009 636.961L969.056 631.884C925.627 520.289 852.874 428.161 717.559 385.52C583.419 343.249 389.794 350.294 105.834 430.819L109.654 444.288ZM956.009 636.961L942.962 642.039C978.046 732.189 993.808 837.017 1009.57 942.248L1023.41 940.174L1037.26 938.101C1021.61 833.595 1005.49 725.494 969.056 631.884L956.009 636.961ZM1023.41 940.174L1009.57 942.247C1016.87 991.027 1024.18 1039.85 1033.44 1086.74L1047.18 1084.03L1060.91 1081.32C1051.8 1035.17 1044.58 987.004 1037.26 938.101L1023.41 940.174ZM1047.18 1084.03L1039.29 1095.59L1039.29 1095.59L1047.18 1084.03L1055.07 1072.47L1055.07 1072.46L1047.18 1084.03ZM1063.53 1084.48L1051.97 1076.59L1051.7 1076.98L1063.27 1084.87L1074.83 1092.77L1075.1 1092.37L1063.53 1084.48ZM1063.27 1084.87L1076.91 1081.74C1065.94 1033.93 1056.85 983.522 1047.59 932.066L1033.81 934.547L1020.03 937.027C1029.27 988.353 1038.47 1039.43 1049.62 1088.01L1063.27 1084.87ZM1033.81 934.547L1047.59 932.065C1027.96 823.04 1007.52 709.165 966.409 610.737L953.49 616.132L940.572 621.527C980.282 716.613 1000.28 827.314 1020.03 937.028L1033.81 934.547ZM953.49 616.132L966.409 610.736C918.034 494.906 840.465 399.184 701.312 356.464C563.215 314.069 366.705 324.618 81.82 414.832L86.0465 428.179L90.273 441.526C373.092 351.966 563.033 343.302 693.095 383.231C822.102 422.836 894.402 510.977 940.572 621.527L953.49 616.132ZM86.0465 428.179L93.9376 416.615L93.5692 416.363L85.6781 427.928L77.787 439.492L78.1554 439.743L86.0465 428.179ZM85.6781 427.928L89.9059 441.274C372.95 351.614 563.042 342.932 693.21 382.893C822.323 422.53 894.684 510.753 940.896 621.405L953.814 616.009L966.733 610.614C918.317 494.683 840.687 398.877 701.427 356.126C563.223 313.698 366.56 324.267 81.4504 414.581L85.6781 427.928ZM953.814 616.009L940.895 621.404C980.621 716.529 1000.62 827.25 1020.38 936.979L1034.16 934.498L1047.94 932.017C1028.3 822.975 1007.85 709.081 966.733 610.614L953.814 616.009ZM1034.16 934.498L1020.38 936.979C1029.6 988.184 1038.77 1039.15 1049.89 1087.61L1063.53 1084.48L1077.18 1081.35C1066.24 1033.65 1057.18 983.353 1047.94 932.017L1034.16 934.498ZM1063.53 1084.48L1075.1 1092.37L1075.1 1092.37L1063.53 1084.48L1051.97 1076.59L1051.97 1076.59L1063.53 1084.48ZM1076.08 1066.09L1064.52 1058.2L1064.25 1058.59L1075.82 1066.48L1087.38 1074.37L1087.65 1073.98L1076.08 1066.09ZM1075.82 1066.48L1089.41 1063.14C1078.78 1019.91 1069.29 974.459 1059.59 927.948L1045.88 930.807L1032.18 933.666C1041.86 980.08 1051.45 1026.03 1062.22 1069.83L1075.82 1066.48ZM1045.88 930.807L1059.59 927.948C1035.68 813.362 1010.47 692.221 963.687 587.926L950.913 593.655L938.139 599.385C983.448 700.402 1008.13 818.417 1032.18 933.666L1045.88 930.807ZM950.913 593.655L963.687 587.926C909.953 468.127 827.107 369.171 684.152 326.784C542.122 284.672 343.221 299.184 58.848 399.596L63.5093 412.797L68.1707 425.998C350.294 326.38 542.461 313.977 676.193 353.629C808.999 393.007 886.607 484.494 938.139 599.385L950.913 593.655ZM63.5093 412.797L71.4004 401.233L71.0406 400.987L63.1495 412.552L55.2584 424.116L55.6182 424.361L63.5093 412.797ZM63.1495 412.552L67.812 425.752C350.15 326.03 542.465 313.606 676.302 353.288C809.214 392.695 886.885 484.264 938.462 599.255L951.236 593.526L964.01 587.796C910.232 467.898 827.323 368.86 684.262 326.443C542.125 284.3 343.074 298.834 58.487 399.351L63.1495 412.552ZM951.236 593.526L938.462 599.255C983.786 700.305 1008.47 818.339 1032.52 933.609L1046.23 930.749L1059.93 927.89C1036.02 813.285 1010.8 692.124 964.01 587.796L951.236 593.526ZM1046.23 930.749L1032.52 933.608C1042.18 979.905 1051.74 1025.74 1062.48 1069.44L1076.08 1066.1L1089.67 1062.75C1079.07 1019.62 1069.61 974.284 1059.93 927.89L1046.23 930.749ZM1076.08 1066.1L1087.64 1073.99L1087.65 1073.98L1076.08 1066.09L1064.52 1058.2L1064.52 1058.2L1076.08 1066.1ZM1088.66 1047.66L1077.1 1039.77L1076.84 1040.15L1088.4 1048.04L1099.96 1055.93L1100.23 1055.55L1088.66 1047.66ZM1088.4 1048.04L1101.94 1044.49C1092.01 1006.56 1082.66 966.84 1073.08 926.128L1059.45 929.335L1045.82 932.542C1055.39 973.188 1064.82 1013.25 1074.86 1051.59L1088.4 1048.04ZM1059.45 929.335L1073.08 926.127C1044.52 804.79 1013.92 674.524 960.215 563.157L947.604 569.237L934.994 575.318C987.122 683.421 1017.11 810.551 1045.82 932.542L1059.45 929.335ZM947.604 569.237L960.215 563.157C900.773 439.884 812.291 338.287 665.738 296.783C519.975 255.502 319.422 274.47 37.3597 385.422L42.4845 398.45L47.6094 411.479C327.233 301.486 520.902 284.865 658.109 323.723C794.526 362.357 877.761 456.626 934.994 575.318L947.604 569.237ZM42.4845 398.45L50.3756 386.886L50.0243 386.646L42.1332 398.211L34.2421 409.775L34.5934 410.015L42.4845 398.45ZM42.1332 398.211L47.2592 411.238C327.085 301.137 520.897 284.493 658.208 323.379C794.73 362.041 878.031 456.389 935.313 575.18L947.923 569.099L960.534 563.019C901.044 439.648 812.495 337.971 665.837 296.438C519.968 255.129 319.272 274.122 37.0073 385.183L42.1332 398.211ZM947.923 569.099L935.313 575.18C987.457 683.319 1017.45 810.468 1046.16 932.477L1059.79 929.27L1073.42 926.063C1044.86 804.707 1014.25 674.422 960.534 563.019L947.923 569.099ZM1059.79 929.27L1046.17 932.478C1055.71 973.009 1065.11 1012.97 1075.12 1051.21L1088.66 1047.66L1102.21 1044.11C1092.3 1006.27 1082.98 966.663 1073.42 926.062L1059.79 929.27ZM1088.66 1047.66L1096.55 1036.09L1096.55 1036.09L1088.66 1047.66L1080.77 1059.22L1080.77 1059.22L1088.66 1047.66ZM1101.27 1029.18L1089.71 1021.29L1089.45 1021.66L1101.01 1029.56L1112.58 1037.45L1112.84 1037.07L1101.27 1029.18ZM1101.01 1029.56L1114.5 1025.82C1105.7 994.038 1097.09 960.963 1088.27 927.049L1074.72 930.573L1061.17 934.098C1069.98 967.968 1078.64 1001.26 1087.52 1033.3L1101.01 1029.56ZM1074.72 930.573L1088.27 927.049C1054.61 797.629 1017.8 655.907 955.585 536.029L943.159 542.479L930.733 548.928C991.236 665.5 1027.34 804.018 1061.17 934.098L1074.72 930.573ZM943.159 542.479L955.585 536.029C890.12 409.901 795.711 306.416 645.846 266.448C496.632 226.654 295.27 250.623 17.4177 372.359L23.0359 385.182L28.6542 398.006C303.879 277.421 498.228 256.059 638.631 293.503C778.383 330.773 867.498 427.096 930.733 548.928L943.159 542.479ZM23.0359 385.182L30.927 373.618L30.5842 373.384L22.6932 384.948L14.8021 396.513L15.1448 396.747L23.0359 385.182ZM22.6932 384.948L28.3125 397.771C303.73 277.073 498.218 255.684 638.723 293.153C778.577 330.449 867.759 426.85 931.043 548.78L943.469 542.331L955.895 535.882C890.381 409.656 795.906 306.092 645.938 266.099C496.62 226.279 295.119 250.277 17.0738 372.126L22.6932 384.948ZM943.469 542.331L931.043 548.78C991.564 665.387 1027.67 803.924 1061.51 934.023L1075.06 930.498L1088.61 926.974C1054.94 797.534 1018.13 655.793 955.895 535.882L943.469 542.331ZM1075.06 930.498L1061.51 934.023C1070.29 967.787 1078.93 1000.98 1087.78 1032.92L1101.27 1029.18L1114.76 1025.44C1105.98 993.754 1097.4 960.782 1088.61 926.974L1075.06 930.498ZM1113.91 1010.66L1102.35 1002.77L1102.09 1003.14L1113.66 1011.03L1125.22 1018.92L1125.47 1018.55L1113.91 1010.66ZM1113.66 1011.03L1127.09 1007.11C1119.93 982.567 1112.76 957.229 1105.43 931.293L1091.96 935.102L1078.49 938.91C1085.81 964.825 1093.01 990.28 1100.22 1014.95L1113.66 1011.03ZM1091.96 935.102L1105.43 931.293C1066.16 792.369 1022.09 636.235 949.333 506.183L937.115 513.019L924.898 519.854C995.756 646.508 1039.02 799.308 1078.49 938.91L1091.96 935.102ZM937.115 513.019L949.333 506.183C877.589 377.949 777.063 273.51 624.273 235.849C472 198.316 270.79 227.879 -0.845783 360.497L5.29633 373.077L11.4385 385.658C280.268 254.41 474.357 227.735 617.572 263.036C760.269 298.208 855.42 395.672 924.898 519.854L937.115 513.019ZM5.29633 373.077L13.1874 361.513L12.851 361.284L4.95993 372.848L-2.93116 384.412L-2.59476 384.641L5.29633 373.077ZM4.95993 372.848L11.1032 385.428C280.114 254.063 474.337 227.358 617.654 262.682C760.453 297.877 855.673 395.417 925.203 519.694L937.421 512.859L949.639 506.023C877.842 377.695 777.247 273.179 624.354 235.495C471.979 197.939 270.634 227.532 -1.1833 360.268L4.95993 372.848ZM937.421 512.859L925.203 519.694C996.083 646.382 1039.36 799.205 1078.83 938.829L1092.3 935.021L1105.77 931.212C1066.49 792.265 1022.42 636.108 949.639 506.023L937.421 512.859ZM1092.3 935.021L1078.83 938.829C1086.12 964.642 1093.29 990 1100.47 1014.58L1113.91 1010.66L1127.35 1006.74C1120.21 982.288 1113.07 957.046 1105.77 931.213L1092.3 935.021ZM1113.91 1010.66L1127.67 1008.06L1127.67 1008.06L1113.91 1010.66L1100.15 1013.25L1100.15 1013.26L1113.91 1010.66ZM1126.57 992.097L1115.01 984.206L1114.76 984.575L1126.32 992.466L1137.89 1000.36L1138.14 999.989L1126.57 992.097ZM1126.32 992.466L1139.71 988.367C1134.84 972.464 1129.92 956.214 1124.91 939.667L1111.51 943.723L1098.11 947.78C1103.12 964.322 1108.05 980.613 1112.94 996.565L1126.32 992.466ZM1111.51 943.723L1124.91 939.667C1079.55 789.837 1026.84 615.466 940.96 473.308L928.977 480.547L916.994 487.786C1000.73 626.4 1052.53 797.238 1098.11 947.78L1111.51 943.723ZM928.977 480.547L940.96 473.308C863.293 344.748 757.543 240.966 604.069 205.739C450.952 170.595 253.409 204.416 -6.41441 343.939L0.208925 356.273L6.83226 368.607C263.628 230.71 453.951 200.011 597.805 233.03C741.302 265.966 841.626 363.031 916.994 487.786L928.977 480.547ZM0.208925 356.273L11.7731 364.164L12.2089 363.526L0.644735 355.634L-10.9195 347.743L-11.3553 348.382L0.208925 356.273ZM0.644735 355.634L7.26393 367.971C263.973 230.231 454.253 199.632 598.09 232.718C741.573 265.723 841.907 362.829 917.293 487.616L929.276 480.377L941.26 473.138C863.576 344.549 757.82 240.729 604.367 205.431C451.269 170.214 253.768 203.931 -5.97443 343.298L0.644735 355.634ZM929.276 480.377L917.293 487.616C1001.06 626.271 1052.86 797.133 1098.45 947.694L1111.85 943.638L1125.24 939.581C1079.88 789.731 1027.16 615.336 941.26 473.138L929.276 480.377ZM1111.85 943.638L1098.45 947.694C1103.42 964.137 1108.33 980.334 1113.19 996.198L1126.57 992.1L1139.96 988.001C1135.12 972.185 1130.22 956.03 1125.24 939.581L1111.85 943.638ZM1126.57 992.1L1138.14 999.991L1138.14 999.989L1126.57 992.097L1115.01 984.206L1115.01 984.209L1126.57 992.1ZM1139.26 973.504L1127.7 965.613L1127.45 965.979L1139.01 973.87L1150.58 981.761L1150.83 981.395L1139.26 973.504ZM1139.01 973.87L1152.35 969.604C1150.63 964.227 1148.89 958.808 1147.15 953.353L1133.81 957.617L1120.48 961.881C1122.22 967.337 1123.96 972.759 1125.68 978.136L1139.01 973.87ZM1133.81 957.617L1147.15 953.353C1095.38 791.456 1032.26 593.744 929.936 437.195L918.217 444.855L906.498 452.515C1006.38 605.319 1068.47 799.221 1120.48 961.881L1133.81 957.617ZM918.217 444.855L929.936 437.195C847.798 311.531 739.409 210.881 589.89 177.071C440.51 143.293 253.133 176.927 14.4452 313.084L21.382 325.244L28.3189 337.405C263.616 203.182 443.667 172.714 583.714 204.382C723.621 236.018 826.657 330.364 906.498 452.515L918.217 444.855ZM21.382 325.244L32.9462 333.136L33.4009 332.469L21.8367 324.578L10.2725 316.687L9.81784 317.353L21.382 325.244ZM21.8367 324.578L28.7686 336.742C263.976 202.698 443.979 172.336 584.005 204.073C723.894 235.778 826.936 330.157 906.794 452.333L918.513 444.673L930.232 437.013C848.079 311.327 739.688 210.648 590.194 176.766C440.838 142.914 253.508 176.436 14.9049 312.415L21.8367 324.578ZM918.513 444.673L906.794 452.333C1006.7 605.176 1068.8 799.103 1120.81 961.786L1134.15 957.522L1147.48 953.259C1095.71 791.338 1032.58 593.602 930.232 437.013L918.513 444.673ZM1134.15 957.522L1120.82 961.788C1122.53 967.149 1124.24 972.481 1125.93 977.77L1139.26 973.504L1152.6 969.237C1150.9 963.948 1149.2 958.624 1147.48 953.257L1134.15 957.522ZM1151.97 954.878L1140.41 946.987L1140.16 947.349L1151.72 955.24L1163.29 963.131L1163.54 962.769L1151.97 954.878ZM1151.72 955.24L1165.01 950.811C1107.98 779.816 1033.51 563.874 915.723 397.721L904.302 405.818L892.88 413.914C1007.89 576.159 1081.25 788.149 1138.44 959.669L1151.72 955.24ZM904.302 405.818L915.723 397.721C829.691 276.353 719.565 180.159 574.907 148.211C430.198 116.252 253.886 149.232 36.8782 279.956L44.1023 291.949L51.3264 303.941C264.573 175.481 433.481 145.652 568.868 175.552C704.306 205.464 809.152 295.796 892.88 413.914L904.302 405.818ZM44.1023 291.949L55.6665 299.84L56.1401 299.146L44.5759 291.254L33.0117 283.363L32.5381 284.057L44.1023 291.949ZM44.5759 291.254L51.7939 303.25C264.949 174.993 433.804 145.278 569.167 175.248C704.582 205.229 809.429 295.588 893.168 413.72L904.59 405.624L916.011 397.528C829.969 276.147 719.847 179.93 575.22 147.91C430.54 115.877 254.279 148.735 37.3579 279.259L44.5759 291.254ZM904.59 405.624L893.168 413.72C1008.15 575.931 1081.5 787.812 1138.69 959.307L1151.97 954.878L1165.25 950.449C1108.23 779.475 1033.76 563.645 916.011 397.528L904.59 405.624ZM1164.7 936.22L1153.14 928.329L1152.89 928.689L1164.46 936.58L1176.02 944.471L1176.27 944.111L1164.7 936.22ZM1164.46 936.58L1177.69 931.997C1115.91 753.68 1029.32 525.516 897.805 354.902L886.717 363.45L875.629 371.997C1004.06 538.604 1089.43 762.765 1151.23 941.163L1164.46 936.58ZM886.717 363.45L897.805 354.902C808.741 239.365 698.103 148.978 559.4 119.266C420.489 89.5095 256.197 121.191 61.1734 244.146L68.6399 255.989L76.1064 267.832C266.995 147.483 423.836 118.862 553.535 146.645C683.44 174.473 788.885 259.469 875.629 371.997L886.717 363.45ZM68.6399 255.989L80.2041 263.88L80.7039 263.148L69.1397 255.257L57.5755 247.366L57.0757 248.098L68.6399 255.989ZM69.1397 255.257L76.5987 267.104C267.394 146.98 424.179 118.484 553.847 146.34C683.723 174.24 789.159 259.258 875.905 371.789L886.993 363.242L898.081 354.695C809.016 239.155 698.392 148.753 559.727 118.964C420.854 89.1312 256.618 120.678 61.6806 243.409L69.1397 255.257ZM886.993 363.242L875.905 371.789C1004.31 538.363 1089.67 762.424 1151.47 940.803L1164.7 936.22L1177.93 931.637C1116.16 753.336 1029.58 525.273 898.081 354.694L886.993 363.242ZM1177.45 917.539L1165.89 909.648L1165.64 910.004L1177.21 917.895L1188.77 925.786L1189.01 925.43L1177.45 917.539ZM1177.21 917.895L1190.38 913.165C1117.15 709.154 1003.81 438.163 833.35 261.847L823.285 271.578L813.22 281.309C979.115 452.9 1090.83 718.696 1164.03 922.625L1177.21 917.895ZM823.285 271.578L833.35 261.847C744.082 169.515 638.354 102.338 513.783 85.1186C389.085 67.8823 247.666 101.003 87.7031 205.127L95.3406 216.86L102.978 228.593C258.837 127.141 393.55 96.7656 509.949 112.855C626.474 128.962 726.807 191.931 813.22 281.309L823.285 271.578ZM95.3406 216.86L106.905 224.751L107.421 223.995L95.8563 216.104L84.2921 208.213L83.7764 208.969L95.3406 216.86ZM95.8563 216.104L103.485 227.843C259.252 126.621 393.902 96.3742 510.261 112.535C626.748 128.714 727.062 191.7 813.468 281.073L823.534 271.342L833.599 261.611C744.34 169.288 638.638 102.097 514.113 84.8016C389.462 67.4888 248.106 100.471 88.2279 204.365L95.8563 216.104ZM823.534 271.342L813.468 281.073C979.345 452.642 1091.06 718.34 1164.27 922.27L1177.45 917.539L1190.63 912.808C1117.38 708.793 1004.04 437.904 833.599 261.611L823.534 271.342ZM1190.22 898.83L1178.65 890.939L1178.41 891.293L1189.98 899.184L1201.54 907.075L1201.78 906.721L1190.22 898.83ZM1189.98 899.184L1203.1 894.312C1126.73 688.54 1002.09 413.368 824.921 234.769L814.982 244.629L805.043 254.489C977.741 428.577 1100.7 698.881 1176.85 904.055L1189.98 899.184ZM814.982 244.629L824.921 234.769C735.239 144.364 631.261 77.8681 512.461 58.4954C393.37 39.0753 261.393 67.3362 116.627 162.688L124.328 174.38L132.029 186.072C272.167 93.7681 397.135 68.0592 507.955 86.1304C619.064 104.249 717.961 166.705 805.042 254.489L814.982 244.629ZM124.328 174.38L135.892 182.271L136.411 181.511L124.846 173.62L113.282 165.729L112.764 166.489L124.328 174.38ZM124.846 173.62L132.537 185.319C272.591 93.2559 397.499 67.6784 508.279 85.8209C619.349 104.011 718.223 166.479 805.292 254.251L815.232 244.391L825.171 234.531C735.502 144.14 631.555 77.6369 512.804 58.189C393.761 38.6933 261.846 66.8114 117.156 161.921L124.846 173.62ZM815.232 244.391L805.292 254.251C977.965 428.314 1100.92 698.526 1177.09 903.703L1190.22 898.83L1203.34 893.958C1126.95 688.181 1002.32 413.104 825.171 234.531L815.232 244.391ZM1203 880.096L1191.44 872.205L1191.2 872.556L1202.76 880.447L1214.33 888.338L1214.56 887.987L1203 880.096ZM1202.76 880.447L1215.84 875.44C1136.56 668.439 1001.03 389.907 817.82 208.999L807.983 218.96L798.146 228.922C977.021 405.551 1110.83 679.527 1189.69 885.454L1202.76 880.447ZM807.983 218.96L817.82 208.999C746.267 138.345 666.958 82.0913 580.361 51.0709L575.64 64.2508L570.919 77.4307C652.578 106.682 728.53 160.181 798.146 228.922L807.983 218.96ZM575.64 64.2508L580.361 51.071C493.551 19.9733 399.853 14.4113 300.271 44.5792L304.33 57.9779L308.389 71.3765C401.949 43.0327 489.489 48.2608 570.919 77.4307L575.64 64.2508ZM304.33 57.9779L300.271 44.5791C250.674 59.6032 199.806 83.4389 147.742 117.163L155.353 128.913L162.964 140.663C213.093 108.193 261.59 85.553 308.389 71.3766L304.33 57.9779ZM155.353 128.913L166.917 136.804L167.432 136.051L155.867 128.159L144.303 120.268L143.789 121.022L155.353 128.913ZM155.867 128.159L163.465 139.918C213.372 107.673 261.664 85.1633 308.272 71.0443L304.214 57.6456L300.155 44.2469C250.761 59.2097 200.107 82.9076 148.27 116.4L155.867 128.159ZM304.214 57.6456L308.272 71.0443C401.91 42.6785 489.527 47.9122 571.026 77.1046L575.747 63.9246L580.468 50.7446C493.589 19.625 399.814 14.057 300.155 44.2469L304.214 57.6456ZM575.747 63.9246L571.026 77.1044C652.737 106.376 728.735 159.903 798.388 228.682L808.225 218.72L818.062 208.758C746.472 138.067 667.117 81.7848 580.469 50.7447L575.747 63.9246ZM808.225 218.72L798.388 228.682C977.24 405.286 1111.04 679.171 1189.93 885.106L1203 880.098L1216.07 875.09C1136.77 668.081 1001.25 389.641 818.062 208.758L808.225 218.72ZM1203 880.098L1214.56 887.989L1214.56 887.987L1203 880.096L1191.44 872.205L1191.44 872.207L1203 880.098ZM1215.8 861.338L1204.24 853.447L1204 853.794L1215.56 861.685L1227.13 869.576L1227.36 869.229L1215.8 861.338ZM1215.56 861.685L1228.59 856.548C1142.39 638.012 985.253 338.008 781.927 156.387L772.6 166.828L763.274 177.269C961.725 354.536 1116.89 649.687 1202.54 866.822L1215.56 861.685ZM772.6 166.828L781.927 156.387C712.042 93.9625 636.234 45.0967 555.498 18.5701L551.128 31.8706L546.758 45.1711C622.821 70.1623 695.348 116.595 763.274 177.269L772.6 166.828ZM551.128 31.8706L555.498 18.5701C474.586 -8.01402 389.015 -12.0492 300.232 14.8446L304.29 28.2434L308.349 41.6421C391.218 16.5399 470.892 20.2448 546.758 45.1711L551.128 31.8706ZM304.29 28.2434L300.231 14.8449C260.728 26.814 220.738 44.8631 180.362 69.606L187.677 81.5429L194.992 93.4798C233.508 69.8767 271.324 52.8606 308.35 41.6418L304.29 28.2434ZM187.677 81.5429L199.241 89.434L199.731 88.7166L188.167 80.8255L176.603 72.9344L176.113 73.6518L187.677 81.5429ZM188.167 80.8255L195.466 92.7721C233.778 69.3642 271.396 52.4715 308.235 41.3112L304.176 27.9126L300.117 14.5139C260.816 26.4199 221.034 44.338 180.868 68.8789L188.167 80.8255ZM304.176 27.9126L308.235 41.3112C391.176 16.1843 470.922 19.894 546.86 44.8441L551.23 31.5436L555.6 18.2431C474.617 -8.36462 388.973 -12.405 300.117 14.5139L304.176 27.9126ZM551.23 31.5436L546.859 44.844C622.97 69.8523 695.54 116.311 763.502 177.017L772.829 166.575L782.155 156.134C712.233 93.6777 636.383 44.7867 555.6 18.2432L551.23 31.5436ZM772.829 166.575L763.502 177.017C961.933 354.266 1117.09 649.326 1202.78 866.479L1215.8 861.34L1228.82 856.202C1142.59 637.648 985.459 337.737 782.155 156.134L772.829 166.575ZM1215.8 861.34L1227.36 869.232L1227.36 869.229L1215.8 861.338L1204.24 853.447L1204.23 853.449L1215.8 861.34ZM1228.62 842.557L1217.05 834.666L1216.82 835.011L1228.38 842.902L1239.95 850.793L1240.18 850.448L1228.62 842.557ZM1228.38 842.902L1241.35 837.64C1177.44 680.047 1072.73 479.893 941.837 311.525L930.784 320.117L919.731 328.71C1048.71 494.618 1152.23 692.398 1215.41 848.164L1228.38 842.902ZM930.784 320.117L941.837 311.525C844.132 185.843 731.069 76.8671 608.594 17.1294L602.456 29.7125L596.319 42.2955C713.334 99.3697 823.261 204.617 919.731 328.71L930.784 320.117ZM602.456 29.7125L608.594 17.1294C485.512 -42.9026 352.732 -53.19 218.072 19.181L224.7 31.5129L231.327 43.8447C356.794 -23.5855 479.956 -14.4596 596.319 42.2955L602.456 29.7125ZM224.7 31.5129L218.073 19.1805C216.478 20.0377 214.899 20.9023 213.35 21.7561L220.107 34.0174L226.865 46.2786C228.376 45.4456 229.857 44.6348 231.326 43.8452L224.7 31.5129ZM220.107 34.0174L231.672 41.9085L232.113 41.2613L220.549 33.3702L208.985 25.4791L208.543 26.1263L220.107 34.0174ZM220.549 33.3702L227.298 45.6363C228.591 44.9247 229.876 44.2243 231.151 43.5393L224.525 31.2064L217.899 18.8735C216.524 19.6125 215.155 20.3589 213.801 21.104L220.549 33.3702ZM224.525 31.2064L231.153 43.5383C356.734 -23.9544 480.003 -14.8206 596.464 41.986L602.602 29.4031L608.74 16.8201C485.559 -43.264 352.671 -53.5587 217.897 18.8746L224.525 31.2064ZM602.602 29.4031L596.465 41.986C713.533 99.0874 823.503 204.373 920.004 328.506L931.057 319.914L942.11 311.321C844.373 185.598 731.268 76.5847 608.74 16.8201L602.602 29.4031ZM931.057 319.914L920.004 328.506C1048.94 494.363 1152.45 692.066 1215.64 847.823L1228.61 842.559L1241.59 837.296C1177.65 679.712 1072.96 479.637 942.11 311.321L931.057 319.914ZM1228.61 842.559L1240.18 850.45L1240.18 850.448L1228.62 842.557L1217.05 834.666L1217.05 834.668L1228.61 842.559ZM1241.44 823.761L1229.88 815.87L1229.65 816.211L1241.21 824.102L1252.77 831.993L1253.01 831.652L1241.44 823.761ZM1241.21 824.102L1254.13 818.72C1184.63 651.829 1064.78 436.23 917.988 260.556L907.245 269.533L896.502 278.51C1041.19 451.665 1159.68 664.73 1228.29 829.484L1241.21 824.102ZM907.245 269.533L917.988 260.556C818.124 141.049 705.005 39.0687 585.923 -15.9681L580.049 -3.25977L574.176 9.44857C687.935 62.0255 797.906 160.52 896.502 278.51L907.245 269.533ZM580.049 -3.25977L585.922 -15.9684C475.674 -66.9165 359.761 -77.7999 245.404 -24.4186L251.326 -11.7327L257.248 0.953262C362.564 -48.2079 469.687 -38.838 574.176 9.44883L580.049 -3.25977ZM251.326 -11.7327L262.89 -3.84159L263.28 -4.41214L251.715 -12.3032L240.151 -20.1943L239.762 -19.6238L251.326 -11.7327ZM251.715 -12.3032L257.617 0.391833C362.865 -48.5398 469.907 -39.117 574.316 9.1384L580.189 -3.56993L586.063 -16.2783C475.906 -67.1902 360.092 -78.1288 245.813 -24.9983L251.715 -12.3032ZM580.189 -3.56993L574.316 9.13842C688.13 61.7403 798.141 160.269 896.769 278.297L907.512 269.319L918.255 260.342C818.359 140.797 705.199 38.7833 586.062 -16.2783L580.189 -3.56993ZM907.512 269.319L896.769 278.296C1041.42 451.402 1159.88 664.394 1228.52 829.145L1241.44 823.761L1254.37 818.377C1184.84 651.49 1065.01 435.966 918.255 260.342L907.512 269.319ZM1254.28 804.944L1242.72 797.053L1242.49 797.393L1254.05 805.284L1265.61 813.175L1265.85 812.835L1254.28 804.944ZM1254.05 805.284L1266.93 799.787C1191.62 623.412 1055.01 391.541 891.639 209.213L881.213 218.555L870.786 227.898C1031.86 407.665 1166.91 636.849 1241.17 810.782L1254.05 805.284ZM881.213 218.555L891.639 209.213C790.346 96.1648 677.962 1.25855 562.685 -49.0439L557.085 -36.2123L551.486 -23.3807C661.559 24.6503 770.782 116.289 870.786 227.898L881.213 218.555ZM557.085 -36.2123L562.684 -49.044C467.769 -90.4571 370.19 -101.887 275.527 -67.3788L280.322 -54.2255L285.117 -41.0722C371.381 -72.5186 461.361 -62.704 551.487 -23.3805L557.085 -36.2123ZM280.322 -54.2255L291.886 -46.3344L292.228 -46.8347L280.663 -54.7258L269.099 -62.6169L268.758 -62.1166L280.322 -54.2255ZM280.663 -54.7258L285.438 -41.5653C371.653 -72.8473 461.566 -62.9904 551.62 -23.6952L557.219 -36.5268L562.818 -49.3584C467.984 -90.7395 370.488 -102.211 275.888 -67.8863L280.663 -54.7258ZM557.219 -36.5268L551.62 -23.6953C661.745 24.3592 771.01 116.033 871.047 227.676L881.473 218.334L891.9 208.991C790.574 95.9083 678.148 0.96742 562.818 -49.3584L557.219 -36.5268ZM881.473 218.334L871.047 227.676C1032.08 407.398 1167.11 636.507 1241.41 810.446L1254.28 804.946L1267.16 799.446C1191.81 623.067 1055.23 391.273 891.9 208.991L881.473 218.334ZM1254.28 804.946L1265.85 812.837L1265.85 812.835L1254.28 804.944L1242.72 797.053L1242.72 797.055L1254.28 804.946ZM1267.13 786.112L1255.57 778.22L1255.34 778.559L1266.9 786.45L1278.47 794.341L1278.7 794.003L1267.13 786.112ZM1266.9 786.45L1279.73 780.841C1198.47 595 1043.63 346.32 863.399 158.199L853.289 167.884L843.18 177.569C1020.93 363.103 1174.01 608.955 1254.07 792.059L1266.9 786.45ZM853.289 167.884L863.399 158.199C761.383 51.7142 650.414 -36.2381 539.242 -81.9239L533.92 -68.9747L528.599 -56.0255C634.667 -12.4375 742.466 72.443 843.18 177.569L853.289 167.884ZM533.92 -68.9747L539.241 -81.9241C460.067 -114.456 380.122 -125.799 303.189 -106.34L306.622 -92.7671L310.055 -79.1945C379.685 -96.8065 453.371 -86.9364 528.599 -56.0252L533.92 -68.9747ZM306.622 -92.7671L318.186 -84.876L318.485 -85.3146L306.921 -93.2057L295.357 -101.097L295.057 -100.658L306.622 -92.7671ZM306.921 -93.2057L310.335 -79.6284C379.931 -97.1301 453.562 -87.2322 528.726 -56.3443L534.047 -69.2936L539.369 -82.2428C460.266 -114.75 380.39 -126.117 303.507 -106.783L306.921 -93.2057ZM534.047 -69.2936L528.726 -56.3441C634.845 -12.7399 742.686 72.1717 843.432 177.332L853.541 167.647L863.651 157.962C761.603 51.4426 650.593 -36.5409 539.368 -82.243L534.047 -69.2936ZM853.541 167.647L843.432 177.333C1021.14 362.826 1174.2 608.601 1254.31 791.722L1267.13 786.112L1279.96 780.501C1198.66 594.644 1043.84 346.042 863.651 157.962L853.541 167.647ZM218.91 518.838L221.323 532.628C485.611 486.377 656.437 491.012 767.011 527.809C822.02 546.115 861.939 572.324 891.201 604.114C920.499 635.942 939.692 673.996 952.308 716.801L965.737 712.843L979.166 708.885C965.633 662.971 944.638 620.823 911.802 585.151C878.931 549.44 834.772 520.849 775.852 501.241C658.566 462.211 482.127 458.562 216.496 505.048L218.91 518.838ZM965.737 712.843L952.308 716.8C974.861 793.323 976.034 883.378 977.154 977.729L991.153 977.563L1005.15 977.397C1004.04 884.073 1003.03 789.846 979.166 708.885L965.737 712.843ZM991.153 977.563L977.154 977.729C977.426 1000.67 977.701 1023.83 978.303 1046.94L992.299 1046.58L1006.29 1046.21C1005.7 1023.34 1005.42 1000.37 1005.15 977.397L991.153 977.563ZM992.299 1046.58L1000.19 1035.01L999.83 1034.77L991.939 1046.33L984.048 1057.9L984.408 1058.14L992.299 1046.58ZM991.939 1046.33L1005.93 1045.97C1005.34 1023.17 1005.07 1000.28 1004.8 977.388L990.8 977.554L976.801 977.719C977.071 1000.58 977.345 1023.66 977.944 1046.7L991.939 1046.33ZM990.8 977.554L1004.8 977.388C1003.69 884.086 1002.68 789.882 978.83 708.97L965.401 712.928L951.972 716.886C974.512 793.359 975.682 883.39 976.801 977.72L990.8 977.554ZM965.401 712.928L978.83 708.97C965.312 663.109 944.338 621.008 911.533 585.376C878.693 549.704 834.575 521.145 775.712 501.559C658.539 462.569 482.273 458.916 216.911 505.329L219.323 519.12L221.735 532.911C485.755 486.732 656.41 491.37 766.872 528.127C821.826 546.413 861.703 572.59 890.934 604.34C920.2 636.129 939.371 674.135 951.972 716.886L965.401 712.928ZM219.323 519.12L227.214 507.556L226.801 507.274L218.91 518.838L211.019 530.402L211.432 530.684L219.323 519.12Z" fill="#FAD129" mask="url(#path-1-inside-1_152_393)"/>
</svg>
